<svg width="27" height="33" viewBox="0 0 27 33" fill="none" xmlns="http://www.w3.org/2000/svg">
<path fill-rule="evenodd" clip-rule="evenodd" d="M21.7663 17.2405C21.7261 13.1892 25.0705 11.2451 25.2199 11.1489C23.3401 8.39923 20.4115 8.02128 19.368 7.97878C16.8759 7.72718 14.5059 9.44688 13.2398 9.44688C11.9771 9.44688 10.0259 8.01653 7.95957 8.05438C5.24357 8.09453 2.73957 9.63408 1.33942 12.0666C-1.48233 16.9623 0.617668 24.2185 3.36797 28.1883C4.71147 30.1324 6.31367 32.3163 8.41782 32.2383C10.4434 32.1586 11.21 30.9261 13.6602 30.9261C16.1099 30.9261 16.7979 32.2383 18.9422 32.1964C21.1225 32.1562 22.5038 30.2145 23.8385 28.2639C25.3828 26.0079 26.0159 23.8264 26.0543 23.7142C26.0058 23.6923 21.8028 22.0825 21.7603 17.2422L21.7663 17.2405ZM17.7387 5.34838C18.8548 3.99423 19.609 2.11448 19.4029 0.238281C17.7948 0.303831 15.8447 1.31013 14.6902 2.66253C13.6538 3.86313 12.7484 5.77653 12.9906 7.61433C14.7865 7.75433 16.6201 6.70193 17.7369 5.35073L17.7387 5.34838Z" fill="black"/>
</svg>
