<svg width="202" height="68" viewBox="0 0 202 68" fill="none" xmlns="http://www.w3.org/2000/svg">
<path d="M185.914 0.000219448H16.0951C15.4761 0.000219448 14.8645 0.000219448 14.2471 0.00359557C13.7303 0.00697168 13.2177 0.0167793 12.6959 0.0250339C11.5624 0.0383726 10.4315 0.138094 9.31319 0.323331C8.19641 0.5126 7.11462 0.869428 6.10439 1.38174C5.0954 1.89839 4.17346 2.56973 3.37202 3.37139C2.56636 4.1708 1.89478 5.09481 1.38311 6.10789C0.870026 7.11895 0.514251 8.20239 0.328074 9.3208C0.140127 10.4378 0.0389914 11.5677 0.0255741 12.7003C0.00990891 13.2179 0.00825461 13.7371 0 14.2548V53.273C0.00825461 53.7971 0.00990891 54.3049 0.0255741 54.8292C0.0389955 55.9618 0.140131 57.0916 0.328074 58.2085C0.513737 59.3276 0.869533 60.4117 1.38311 61.4231C1.89455 62.4329 2.56622 63.3532 3.37202 64.1481C4.17042 64.9534 5.09296 65.6252 6.10439 66.1379C7.11461 66.6515 8.19629 67.0105 9.31319 67.2027C10.4317 67.3864 11.5625 67.4862 12.6959 67.5011C13.2177 67.5126 13.7303 67.5192 14.2471 67.5192C14.8645 67.5226 15.4761 67.5226 16.0951 67.5226H185.914C186.521 67.5226 187.137 67.5226 187.744 67.5192C188.258 67.5192 188.786 67.5126 189.3 67.5011C190.431 67.487 191.56 67.3872 192.676 67.2027C193.797 67.0091 194.882 66.6503 195.897 66.1379C196.908 65.6249 197.83 64.9531 198.627 64.1481C199.431 63.3501 200.104 62.4305 200.622 61.4231C201.132 60.4109 201.484 59.327 201.667 58.2085C201.855 57.0914 201.96 55.9619 201.98 54.8292C201.987 54.3049 201.987 53.7971 201.987 53.273C202 52.6597 202 52.0498 202 51.4266V16.0978C202 15.4796 202 14.8663 201.987 14.2548C201.987 13.7371 201.987 13.2179 201.98 12.7002C201.96 11.5675 201.855 10.4379 201.667 9.32074C201.483 8.20297 201.131 7.11961 200.622 6.10782C199.58 4.07721 197.928 2.42431 195.897 1.38159C194.882 0.870528 193.797 0.513795 192.676 0.323179C191.56 0.137126 190.431 0.0373698 189.3 0.0247976C188.786 0.0165599 188.258 0.00666783 187.744 0.00337612C187.137 0 186.521 0.000219448 185.914 0.000219448Z" fill="#A6A6A6"/>
<path d="M14.2563 66.0458C13.742 66.0458 13.2401 66.0392 12.7298 66.0277C11.6727 66.014 10.6181 65.9219 9.57457 65.7524C8.60156 65.5848 7.65897 65.2731 6.7779 64.8275C5.90491 64.3856 5.10867 63.8062 4.41968 63.1114C3.72072 62.4249 3.13881 61.6286 2.697 60.7541C2.25032 59.8739 1.94119 58.9305 1.78038 57.9566C1.60672 56.9102 1.51277 55.8521 1.49932 54.7915C1.48862 54.4355 1.47461 53.2501 1.47461 53.2501V14.255C1.47461 14.255 1.48953 13.0879 1.49941 12.745C1.51228 11.686 1.60569 10.6296 1.77883 9.58483C1.93994 8.60832 2.24931 7.66216 2.69622 6.77911C3.13641 5.90522 3.71509 5.10832 4.40984 4.41929C5.10381 3.72371 5.90259 3.1413 6.77707 2.6933C7.65612 2.24914 8.59693 1.93962 9.56797 1.77509C10.6149 1.60387 11.6732 1.51129 12.7339 1.49815L14.2571 1.47754H187.736L189.278 1.49898C190.329 1.51147 191.378 1.60322 192.415 1.77344C193.396 1.94003 194.346 2.25171 195.236 2.69824C196.987 3.60109 198.413 5.02949 199.312 6.78323C199.752 7.66019 200.057 8.59863 200.216 9.5667C200.391 10.6201 200.489 11.6848 200.509 12.7524C200.514 13.2305 200.514 13.744 200.514 14.255C200.527 14.8881 200.527 15.4906 200.527 16.098V51.4269C200.527 52.0401 200.527 52.6386 200.514 53.2419C200.514 53.7908 200.514 54.2937 200.507 54.8113C200.488 55.8598 200.391 56.9056 200.219 57.9401C200.061 58.9209 199.754 59.8717 199.307 60.7591C198.862 61.6241 198.284 62.4135 197.593 63.0983C196.903 63.7968 196.106 64.3796 195.231 64.8243C194.344 65.2733 193.395 65.5862 192.415 65.7524C191.372 65.9228 190.317 66.0149 189.26 66.0277C188.765 66.0392 188.247 66.0458 187.745 66.0458L185.915 66.0492L14.2563 66.0458Z" fill="black"/>
<path d="M41.8108 34.2694C41.8289 32.8604 42.2032 31.4789 42.8987 30.2535C43.5942 29.028 44.5884 27.9984 45.7888 27.2605C45.0262 26.1714 44.0202 25.2751 42.8507 24.6429C41.6812 24.0106 40.3803 23.6597 39.0515 23.6182C36.2168 23.3206 33.4687 25.3144 32.0242 25.3144C30.5518 25.3144 28.3278 23.6477 25.9329 23.697C24.3838 23.747 22.8741 24.1975 21.5509 25.0045C20.2276 25.8115 19.136 26.9475 18.3823 28.3018C15.1176 33.9541 17.5528 42.2611 20.6801 46.8301C22.2448 49.0673 24.0734 51.5664 26.4662 51.4778C28.8076 51.3807 29.6821 49.9847 32.5084 49.9847C35.3085 49.9847 36.1289 51.4778 38.5702 51.4214C41.0827 51.3807 42.6657 49.1742 44.1754 46.9158C45.2996 45.3216 46.1647 43.5598 46.7386 41.6954C45.2789 41.0781 44.0333 40.0447 43.157 38.7241C42.2807 37.4035 41.8125 35.8542 41.8108 34.2694Z" fill="white"/>
<path d="M37.1991 20.6131C38.569 18.9686 39.2439 16.8548 39.0805 14.7207C36.9876 14.9405 35.0543 15.9408 33.6659 17.5222C32.9871 18.2948 32.4672 19.1936 32.1359 20.1672C31.8046 21.1408 31.6685 22.1702 31.7353 23.1964C32.7821 23.2072 33.8177 22.9803 34.7642 22.5328C35.7106 22.0854 36.5432 21.429 37.1991 20.6131Z" fill="white"/>
<path d="M71.4067 45.814H63.4165L61.4976 51.4799H58.1133L65.6815 30.5176H69.1978L76.766 51.4799H73.3239L71.4067 45.814ZM64.244 43.1995H70.5776L67.4554 34.0042H67.368L64.244 43.1995Z" fill="white"/>
<path d="M93.1112 43.8393C93.1112 48.5887 90.5692 51.64 86.7332 51.64C85.7614 51.6908 84.795 51.467 83.9446 50.9941C83.0942 50.5212 82.3941 49.8184 81.9245 48.9661H81.8519V56.536H78.7148V36.1969H81.7514V38.7389H81.8091C82.3003 37.8907 83.0122 37.1915 83.8691 36.7157C84.726 36.24 85.6959 36.0054 86.6755 36.037C90.5543 36.037 93.1112 39.1032 93.1112 43.8393ZM89.8867 43.8393C89.8867 40.7451 88.2877 38.7109 85.8479 38.7109C83.451 38.7109 81.8388 40.788 81.8388 43.8393C81.8388 46.9187 83.451 48.981 85.8479 48.981C88.2877 48.981 89.8867 46.9616 89.8867 43.8393Z" fill="white"/>
<path d="M109.932 43.8393C109.932 48.5886 107.39 51.64 103.553 51.64C102.582 51.6908 101.615 51.467 100.765 50.9941C99.9145 50.5212 99.2144 49.8184 98.7448 48.9661H98.6722V56.536H95.5352V36.1969H98.5717V38.7389H98.6294C99.1205 37.8907 99.8324 37.1915 100.689 36.7157C101.546 36.24 102.516 36.0054 103.496 36.037C107.375 36.037 109.932 39.1032 109.932 43.8393ZM106.707 43.8393C106.707 40.7451 105.108 38.7109 102.668 38.7109C100.271 38.7109 98.6591 40.788 98.6591 43.8393C98.6591 46.9187 100.271 48.981 102.668 48.981C105.108 48.981 106.707 46.9616 106.707 43.8393Z" fill="white"/>
<path d="M121.049 45.6392C121.282 47.7179 123.301 49.0828 126.061 49.0828C128.705 49.0828 130.607 47.7179 130.607 45.8435C130.607 44.2165 129.46 43.2422 126.743 42.5746L124.026 41.9201C120.177 40.9903 118.39 39.1902 118.39 36.2691C118.39 32.6523 121.542 30.168 126.018 30.168C130.447 30.168 133.484 32.6523 133.586 36.2691H130.419C130.23 34.1771 128.5 32.9144 125.973 32.9144C123.446 32.9144 121.717 34.192 121.717 36.0515C121.717 37.5335 122.821 38.4055 125.523 39.0731L127.833 39.6402C132.134 40.6573 133.921 42.385 133.921 45.4511C133.921 49.3729 130.797 51.8291 125.828 51.8291C121.179 51.8291 118.041 49.4306 117.838 45.639L121.049 45.6392Z" fill="white"/>
<path d="M140.69 32.5801V36.1969H143.597V38.6812H140.69V47.1066C140.69 48.4155 141.272 49.0255 142.55 49.0255C142.895 49.0195 143.239 48.9952 143.582 48.9529V51.4223C143.008 51.5296 142.424 51.5783 141.839 51.5674C138.745 51.5674 137.539 50.4052 137.539 47.4412V38.6812H135.316V36.1969H137.539V32.5801H140.69Z" fill="white"/>
<path d="M145.281 43.8391C145.281 39.0305 148.113 36.0088 152.53 36.0088C156.961 36.0088 159.78 39.0304 159.78 43.8391C159.78 48.661 156.976 51.6695 152.53 51.6695C148.085 51.6695 145.281 48.661 145.281 43.8391ZM156.583 43.8391C156.583 40.5405 155.072 38.5936 152.53 38.5936C149.988 38.5936 148.478 40.5553 148.478 43.8391C148.478 47.151 149.988 49.083 152.53 49.083C155.072 49.083 156.583 47.151 156.583 43.8391Z" fill="white"/>
<path d="M162.365 36.1968H165.357V38.7981H165.43C165.632 37.9856 166.108 37.2676 166.778 36.7648C167.447 36.2619 168.269 36.0049 169.106 36.0368C169.468 36.0356 169.828 36.0748 170.181 36.1539V39.0882C169.724 38.9487 169.248 38.8847 168.771 38.8986C168.316 38.8801 167.861 38.9605 167.439 39.1342C167.018 39.3079 166.639 39.5707 166.328 39.9048C166.017 40.2388 165.783 40.6361 165.64 41.0694C165.498 41.5027 165.451 41.9617 165.502 42.4149V51.4799H162.365L162.365 36.1968Z" fill="white"/>
<path d="M184.646 46.9911C184.224 49.7655 181.522 51.6695 178.065 51.6695C173.619 51.6695 170.859 48.6906 170.859 43.9117C170.859 39.1179 173.634 36.0088 177.933 36.0088C182.161 36.0088 184.82 38.9134 184.82 43.5474V44.6222H174.026V44.8117C173.976 45.3742 174.047 45.9408 174.233 46.474C174.419 47.0071 174.716 47.4946 175.105 47.9041C175.494 48.3135 175.965 48.6355 176.488 48.8487C177.011 49.0619 177.573 49.1615 178.137 49.1407C178.879 49.2101 179.623 49.0385 180.259 48.6511C180.895 48.2638 181.388 47.6816 181.667 46.991L184.646 46.9911ZM174.041 42.4297H181.682C181.71 41.9239 181.633 41.4178 181.457 40.9431C181.28 40.4684 181.007 40.0354 180.655 39.6712C180.303 39.3069 179.879 39.0194 179.411 38.8266C178.943 38.6338 178.439 38.5399 177.933 38.5508C177.422 38.5477 176.916 38.6459 176.443 38.8396C175.97 39.0333 175.541 39.3187 175.179 39.6793C174.817 40.0399 174.53 40.4686 174.335 40.9407C174.14 41.4128 174.04 41.9188 174.041 42.4297Z" fill="white"/>
<path d="M63.8531 14.738C64.5108 14.6908 65.1707 14.7902 65.7854 15.0289C66.4 15.2676 66.954 15.6398 67.4074 16.1186C67.8608 16.5974 68.2023 17.1708 68.4072 17.7975C68.6121 18.4243 68.6754 19.0887 68.5925 19.7428C68.5925 22.9607 66.8533 24.8104 63.8531 24.8104H60.2148V14.738H63.8531ZM61.7793 23.3859H63.6783C64.1483 23.414 64.6186 23.337 65.055 23.1604C65.4915 22.9838 65.883 22.7121 66.2012 22.3651C66.5194 22.0181 66.7562 21.6045 66.8944 21.1544C67.0326 20.7043 67.0687 20.2291 67 19.7633C67.0637 19.2994 67.0239 18.8271 66.8836 18.3804C66.7433 17.9336 66.5059 17.5234 66.1885 17.1792C65.871 16.8349 65.4813 16.5651 65.0474 16.3892C64.6134 16.2132 64.1459 16.1354 63.6783 16.1614H61.7793V23.3859Z" fill="white"/>
<path d="M70.3588 21.0064C70.311 20.5069 70.3681 20.0029 70.5265 19.5268C70.6849 19.0506 70.9411 18.6128 71.2786 18.2415C71.6161 17.8701 72.0275 17.5734 72.4864 17.3704C72.9453 17.1674 73.4416 17.0625 73.9434 17.0625C74.4452 17.0625 74.9415 17.1674 75.4004 17.3704C75.8593 17.5734 76.2707 17.8701 76.6082 18.2415C76.9457 18.6128 77.2019 19.0506 77.3603 19.5268C77.5187 20.0029 77.5758 20.5069 77.5281 21.0064C77.5768 21.5065 77.5203 22.0112 77.3623 22.4881C77.2043 22.965 76.9483 23.4036 76.6107 23.7757C76.2731 24.1478 75.8614 24.4451 75.402 24.6485C74.9427 24.852 74.4458 24.9571 73.9434 24.9571C73.441 24.9571 72.9442 24.852 72.4848 24.6485C72.0254 24.4451 71.6137 24.1478 71.2761 23.7757C70.9385 23.4036 70.6825 22.965 70.5245 22.4881C70.3665 22.0112 70.3101 21.5065 70.3588 21.0064ZM75.9851 21.0064C75.9851 19.3588 75.2449 18.3952 73.9459 18.3952C72.6419 18.3952 71.9084 19.3588 71.9084 21.0065C71.9084 22.6673 72.642 23.6234 73.9459 23.6234C75.2449 23.6234 75.9851 22.6607 75.9851 21.0064Z" fill="white"/>
<path d="M87.0582 24.8102H85.502L83.931 19.2119H83.8123L82.2479 24.8102H80.7066L78.6113 17.209H80.1329L81.4946 23.0092H81.6067L83.1694 17.209H84.6086L86.1713 23.0092H86.29L87.6451 17.209H89.1452L87.0582 24.8102Z" fill="white"/>
<path d="M90.9082 17.2099H92.3523V18.4174H92.4644C92.6546 17.9837 92.9753 17.6201 93.3819 17.3774C93.7885 17.1346 94.2607 17.0248 94.7327 17.0631C95.1026 17.0353 95.4739 17.0911 95.8193 17.2263C96.1647 17.3615 96.4752 17.5727 96.7279 17.8442C96.9806 18.1157 97.1689 18.4406 97.279 18.7948C97.389 19.149 97.418 19.5234 97.3637 19.8903V24.811H95.8636V20.267C95.8636 19.0455 95.3328 18.438 94.2233 18.438C93.9722 18.4263 93.7215 18.469 93.4885 18.5633C93.2554 18.6575 93.0455 18.8011 92.8731 18.984C92.7008 19.167 92.57 19.385 92.4897 19.6233C92.4095 19.8615 92.3817 20.1143 92.4083 20.3643V24.8111H90.9082L90.9082 17.2099Z" fill="white"/>
<path d="M99.7539 14.2422H101.254V24.8107H99.7539V14.2422Z" fill="white"/>
<path d="M103.339 21.0066C103.291 20.507 103.349 20.003 103.507 19.5268C103.666 19.0507 103.922 18.6129 104.259 18.2415C104.597 17.8702 105.008 17.5735 105.467 17.3704C105.926 17.1674 106.422 17.0625 106.924 17.0625C107.426 17.0625 107.922 17.1674 108.381 17.3704C108.84 17.5735 109.252 17.8702 109.589 18.2415C109.927 18.6129 110.183 19.0507 110.341 19.5268C110.5 20.003 110.557 20.507 110.509 21.0066C110.558 21.5066 110.501 22.0114 110.343 22.4883C110.185 22.9652 109.929 23.4038 109.592 23.7758C109.254 24.1479 108.842 24.4452 108.383 24.6487C107.924 24.8521 107.427 24.9572 106.924 24.9572C106.422 24.9572 105.925 24.8521 105.466 24.6487C105.006 24.4452 104.594 24.1479 104.257 23.7758C103.919 23.4038 103.663 22.9652 103.505 22.4883C103.347 22.0114 103.291 21.5066 103.339 21.0066ZM108.965 21.0066C108.965 19.3589 108.225 18.3954 106.926 18.3954C105.622 18.3954 104.889 19.3589 104.889 21.0066C104.889 22.6675 105.622 23.6236 106.926 23.6236C108.225 23.6236 108.965 22.6608 108.965 21.0066Z" fill="white"/>
<path d="M112.09 22.6608C112.09 21.2925 113.109 20.5037 114.917 20.3916L116.976 20.2729V19.6168C116.976 18.814 116.445 18.3607 115.42 18.3607C114.582 18.3607 114.002 18.6681 113.836 19.2055H112.383C112.537 17.8999 113.765 17.0625 115.489 17.0625C117.395 17.0625 118.47 18.0112 118.47 19.6168V24.8104H117.025V23.7422H116.907C116.666 24.1254 116.328 24.4378 115.926 24.6474C115.525 24.8571 115.076 24.9566 114.624 24.9357C114.304 24.9688 113.982 24.9348 113.677 24.8357C113.372 24.7366 113.091 24.5747 112.852 24.3604C112.613 24.146 112.422 23.8841 112.291 23.5913C112.16 23.2986 112.091 22.9816 112.09 22.6608ZM116.976 22.0113V21.3758L115.12 21.4945C114.073 21.5645 113.598 21.9206 113.598 22.5907C113.598 23.2748 114.192 23.6729 115.008 23.6729C115.247 23.6971 115.488 23.673 115.718 23.6019C115.948 23.5309 116.16 23.4144 116.344 23.2594C116.528 23.1043 116.678 22.9139 116.787 22.6995C116.895 22.4851 116.96 22.251 116.976 22.0113Z" fill="white"/>
<path d="M120.439 21.0068C120.439 18.605 121.674 17.0834 123.595 17.0834C124.07 17.0615 124.541 17.1753 124.954 17.4114C125.367 17.6476 125.704 17.9963 125.926 18.417H126.038V14.2422H127.538V24.8107H126.1V23.6097H125.982C125.743 24.0275 125.394 24.372 124.973 24.6057C124.552 24.8395 124.076 24.9537 123.595 24.936C121.661 24.936 120.439 23.4144 120.439 21.0068ZM121.989 21.0068C121.989 22.619 122.749 23.5892 124.02 23.5892C125.284 23.5892 126.066 22.6051 126.066 21.0134C126.066 19.4292 125.276 18.431 124.02 18.431C122.757 18.431 121.989 19.4078 121.989 21.0068Z" fill="white"/>
<path d="M133.745 21.0064C133.698 20.5069 133.755 20.0029 133.913 19.5268C134.072 19.0506 134.328 18.6128 134.665 18.2415C135.003 17.8701 135.414 17.5734 135.873 17.3704C136.332 17.1674 136.828 17.0625 137.33 17.0625C137.832 17.0625 138.328 17.1674 138.787 17.3704C139.246 17.5734 139.657 17.8701 139.995 18.2415C140.332 18.6128 140.589 19.0506 140.747 19.5268C140.905 20.0029 140.963 20.5069 140.915 21.0064C140.963 21.5065 140.907 22.0112 140.749 22.4881C140.591 22.965 140.335 23.4036 139.997 23.7757C139.66 24.1478 139.248 24.4451 138.789 24.6485C138.329 24.852 137.833 24.9571 137.33 24.9571C136.828 24.9571 136.331 24.852 135.872 24.6485C135.412 24.4451 135 24.1478 134.663 23.7757C134.325 23.4036 134.069 22.965 133.911 22.4881C133.753 22.0112 133.697 21.5065 133.745 21.0064ZM139.372 21.0064C139.372 19.3588 138.632 18.3952 137.333 18.3952C136.029 18.3952 135.295 19.3588 135.295 21.0065C135.295 22.6673 136.029 23.6234 137.333 23.6234C138.632 23.6234 139.372 22.6607 139.372 21.0064Z" fill="white"/>
<path d="M142.928 17.2099H144.372V18.4174H144.484C144.674 17.9837 144.995 17.6201 145.401 17.3774C145.808 17.1346 146.28 17.0248 146.752 17.0631C147.122 17.0353 147.493 17.0911 147.839 17.2263C148.184 17.3615 148.495 17.5727 148.747 17.8442C149 18.1157 149.188 18.4406 149.299 18.7948C149.409 19.149 149.438 19.5234 149.383 19.8903V24.811H147.883V20.267C147.883 19.0455 147.352 18.438 146.243 18.438C145.992 18.4263 145.741 18.469 145.508 18.5633C145.275 18.6575 145.065 18.8011 144.893 18.984C144.72 19.167 144.589 19.385 144.509 19.6233C144.429 19.8615 144.401 20.1143 144.428 20.3643V24.8111H142.928V17.2099Z" fill="white"/>
<path d="M157.859 15.3174V17.2445H159.506V18.508H157.859V22.4166C157.859 23.2129 158.187 23.5615 158.934 23.5615C159.125 23.5609 159.316 23.5493 159.506 23.5269V24.7764C159.236 24.8246 158.963 24.8503 158.69 24.8531C157.021 24.8531 156.357 24.2662 156.357 22.8007V18.508H155.15V17.2444H156.357V15.3174H157.859Z" fill="white"/>
<path d="M161.555 14.2422H163.042V18.431H163.16C163.36 17.9933 163.689 17.6277 164.104 17.384C164.519 17.1403 164.999 17.0305 165.478 17.0694C165.846 17.0493 166.214 17.1108 166.555 17.2493C166.897 17.3878 167.203 17.5999 167.453 17.8706C167.703 18.1412 167.891 18.4637 168.002 18.8151C168.113 19.1664 168.145 19.5379 168.096 19.9031V24.8107H166.594V20.2732C166.594 19.0591 166.029 18.4442 164.969 18.4442C164.711 18.423 164.452 18.4585 164.209 18.548C163.966 18.6376 163.746 18.7791 163.564 18.9627C163.381 19.1462 163.241 19.3674 163.154 19.6107C163.066 19.854 163.032 20.1136 163.055 20.3713V24.8107H161.555L161.555 14.2422Z" fill="white"/>
<path d="M176.843 22.7582C176.639 23.4529 176.198 24.0538 175.596 24.4558C174.994 24.8578 174.269 25.0353 173.55 24.9573C173.049 24.9705 172.551 24.8746 172.091 24.6762C171.631 24.4778 171.22 24.1816 170.886 23.8084C170.552 23.4351 170.303 22.9935 170.156 22.5144C170.01 22.0353 169.97 21.5301 170.038 21.0339C169.972 20.5361 170.013 20.0298 170.159 19.5492C170.305 19.0687 170.552 18.6251 170.884 18.2486C171.217 17.872 171.626 17.5712 172.085 17.3666C172.543 17.162 173.041 17.0583 173.543 17.0626C175.658 17.0626 176.934 18.5076 176.934 20.8945V21.418H171.566V21.502C171.543 21.781 171.578 22.0618 171.669 22.3264C171.761 22.591 171.906 22.8336 172.097 23.0386C172.288 23.2436 172.519 23.4065 172.776 23.5169C173.033 23.6273 173.311 23.6827 173.591 23.6796C173.95 23.7227 174.313 23.6581 174.635 23.494C174.957 23.3299 175.223 23.0738 175.399 22.7581L176.843 22.7582ZM171.566 20.3085H175.406C175.425 20.0534 175.39 19.7972 175.304 19.5562C175.218 19.3153 175.082 19.0951 174.906 18.9096C174.73 18.7242 174.517 18.5776 174.281 18.4794C174.045 18.3812 173.79 18.3335 173.535 18.3394C173.275 18.3361 173.018 18.3848 172.777 18.4827C172.537 18.5805 172.319 18.7254 172.135 18.9089C171.952 19.0924 171.807 19.3108 171.709 19.5512C171.612 19.7916 171.563 20.0491 171.566 20.3085Z" fill="white"/>
</svg>
