<svg width="707" height="1306" viewBox="0 0 707 1306" fill="none" xmlns="http://www.w3.org/2000/svg">
<path d="M98.3887 1C51.3887 16.5 16.8887 59 3.88867 109.5" stroke="#9D70FE"/>
<path d="M3.8858 109.5C-16.6118 197.5 77.8881 254.5 104.386 259.5" stroke="#9D70FE"/>
<path d="M104.389 259.5C154.889 270.5 189.389 258.5 229.389 222.5" stroke="#9D70FE"/>
<path d="M229.389 222.497C287.389 152 182.389 39.4995 98.3887 126.497" stroke="#9D70FE"/>
<path d="M98.3863 126.5C60.8862 169 77.3877 227.5 106.386 260.5" stroke="#9D70FE"/>
<path d="M106.389 260.5C154.389 314.5 216.389 308.5 287.389 331.5" stroke="#9D70FE"/>
<path d="M287.389 331.5C354.794 351.235 359.452 369.637 383.389 399" stroke="#9D70FE"/>
<path d="M383.389 399C454.389 498.5 386.889 639 293.889 619" stroke="#9D70FE"/>
<path d="M293.891 619C231.89 578 276.889 470.5 383.391 399.5" stroke="#9D70FE"/>
<path d="M383.889 399.001C468.889 340 589.889 370.5 599.889 465.001" stroke="#9D70FE"/>
<path d="M599.889 465V498.714" stroke="#9D70FE"/>
<path d="M599.889 498.5C587.389 598 563.889 580.5 451.389 739.5" stroke="#9D70FE"/>
<path d="M451.387 739.5C242.389 987 388.889 1161.5 448.387 1198.5" stroke="#9D70FE"/>
<path d="M448.389 1198.5C515.389 1249.5 550.389 1258 599.889 1277.5" stroke="#9D70FE"/>
<path d="M600 1277.5C642.252 1291.79 665.645 1298.21 706.5 1305" stroke="#9D70FE"/>
</svg>
