<svg width="108" height="38" viewBox="0 0 108 38" fill="none" xmlns="http://www.w3.org/2000/svg">
<path d="M9.27748 24.4059H12.8905L15.0304 27.1801L16.5574 28.9866L20.2241 33.6965H16.353L13.8583 30.535L12.7937 29.0296L9.27748 24.4059ZM20.751 20.7928C20.751 23.1656 20.3067 25.1979 19.4177 26.8898C18.536 28.5745 17.3316 29.8648 15.8046 30.7609C14.2848 31.657 12.5607 32.105 10.6324 32.105C8.70398 32.105 6.9763 31.657 5.44935 30.7609C3.92958 29.8577 2.72524 28.5637 1.83631 26.8791C0.95455 25.1872 0.513672 23.1584 0.513672 20.7928C0.513672 18.4199 0.95455 16.3912 1.83631 14.7065C2.72524 13.0146 3.92958 11.7207 5.44935 10.8246C6.9763 9.92851 8.70398 9.48047 10.6324 9.48047C12.5607 9.48047 14.2848 9.92851 15.8046 10.8246C17.3316 11.7207 18.536 13.0146 19.4177 14.7065C20.3067 16.3912 20.751 18.4199 20.751 20.7928ZM16.7401 20.7928C16.7401 19.1224 16.4785 17.7138 15.9552 16.5668C15.439 15.4126 14.7222 14.5417 13.8045 13.9537C12.8869 13.3588 11.8296 13.0613 10.6324 13.0613C9.43519 13.0613 8.37779 13.3588 7.4602 13.9537C6.54259 14.5417 5.82213 15.4126 5.29881 16.5668C4.78267 17.7138 4.52459 19.1224 4.52459 20.7928C4.52459 22.4631 4.78267 23.8753 5.29881 25.0295C5.82213 26.1765 6.54259 27.0475 7.4602 27.6425C8.37779 28.2303 9.43519 28.5242 10.6324 28.5242C11.8296 28.5242 12.8869 28.2303 13.8045 27.6425C14.7222 27.0475 15.439 26.1765 15.9552 25.0295C16.4785 23.8753 16.7401 22.4631 16.7401 20.7928Z" fill="#0D0D0D"/>
<path d="M34 24.8594V15.2891H37.8926V31.8059H34.1183V28.8703H33.9462C33.5734 29.795 32.9606 30.5513 32.1075 31.1391C31.2615 31.727 30.2185 32.0209 28.9783 32.0209C27.8957 32.0209 26.9387 31.7807 26.1071 31.3005C25.2828 30.813 24.6376 30.1068 24.1716 29.1821C23.7056 28.2502 23.4727 27.1246 23.4727 25.8056V15.2891H27.3653V25.2034C27.3653 26.25 27.6521 27.0817 28.2255 27.6982C28.7991 28.3146 29.5517 28.6229 30.4837 28.6229C31.0572 28.6229 31.6127 28.4831 32.1504 28.2036C32.6881 27.9239 33.1289 27.5082 33.4731 26.9561C33.8243 26.3971 34 25.6981 34 24.8594Z" fill="#0D0D0D"/>
<path d="M40.9844 31.8061V15.2893H44.7587V18.042H44.9308C45.232 17.0886 45.748 16.3539 46.4793 15.8377C47.2177 15.3143 48.06 15.0527 49.0063 15.0527C49.2214 15.0527 49.4615 15.0634 49.7268 15.0849C49.9992 15.0993 50.2249 15.1243 50.4041 15.1602V18.741C50.2393 18.6836 49.9776 18.6335 49.6192 18.5905C49.2679 18.5403 48.9273 18.5152 48.5977 18.5152C47.8879 18.5152 47.2499 18.6694 46.6836 18.9775C46.1244 19.2787 45.6836 19.698 45.3609 20.2357C45.0384 20.7734 44.877 21.3935 44.877 22.096V31.8061H40.9844Z" fill="#0D0D0D"/>
<path d="M56.5388 32.1375C55.4923 32.1375 54.5495 31.951 53.7108 31.5783C52.8792 31.1984 52.2198 30.6392 51.7322 29.9008C51.252 29.1624 51.0117 28.252 51.0117 27.1696C51.0117 26.2376 51.1838 25.4669 51.5279 24.8576C51.8721 24.2482 52.3416 23.7607 52.9365 23.3952C53.5316 23.0296 54.2018 22.7536 54.9475 22.5672C55.7001 22.3736 56.4779 22.2338 57.2809 22.1477C58.2486 22.0474 59.0336 21.9579 59.6358 21.879C60.238 21.7929 60.6753 21.664 60.9477 21.4919C61.2272 21.3127 61.3671 21.0366 61.3671 20.6638V20.5994C61.3671 19.7893 61.1269 19.162 60.6466 18.7175C60.1663 18.2731 59.4744 18.0509 58.5712 18.0509C57.6178 18.0509 56.8615 18.2588 56.3023 18.6745C55.7503 19.0903 55.3776 19.5814 55.184 20.1478L51.5494 19.6316C51.8362 18.628 52.3093 17.7891 52.9688 17.1154C53.6284 16.4343 54.4348 15.9254 55.3883 15.5884C56.3417 15.2443 57.3955 15.0723 58.5497 15.0723C59.3455 15.0723 60.1375 15.1655 60.9262 15.3518C61.7147 15.5382 62.4351 15.8465 63.0875 16.2766C63.7398 16.6995 64.2632 17.2766 64.6575 18.0079C65.0589 18.739 65.2597 19.653 65.2597 20.7499V31.8041H61.5175V29.5352H61.3886C61.152 29.994 60.8186 30.4241 60.3885 30.8255C59.9656 31.2199 59.4315 31.5389 58.7863 31.7826C58.1482 32.0192 57.3992 32.1375 56.5388 32.1375ZM57.5496 29.2771C58.3311 29.2771 59.0085 29.123 59.582 28.8147C60.1555 28.4993 60.5964 28.0835 60.9047 27.5674C61.2201 27.0512 61.3778 26.4885 61.3778 25.8791V23.9328C61.2559 24.0331 61.048 24.1264 60.7541 24.2125C60.4673 24.2984 60.1448 24.3737 59.7863 24.4382C59.4279 24.5027 59.0731 24.56 58.7218 24.6103C58.3705 24.6605 58.0658 24.7035 57.8078 24.7393C57.2271 24.8182 56.7073 24.9472 56.2486 25.1265C55.7898 25.3057 55.4277 25.5566 55.1625 25.8791C54.8972 26.1945 54.7646 26.6031 54.7646 27.105C54.7646 27.8219 55.0263 28.3631 55.5496 28.7288C56.073 29.0943 56.7396 29.2771 57.5496 29.2771Z" fill="#0D0D0D"/>
<path d="M72.1563 22.1263V31.8041H68.2637V15.2873H71.9842V18.0939H72.1778C72.5578 17.1692 73.1635 16.4343 73.995 15.8895C74.8338 15.3447 75.8697 15.0723 77.1027 15.0723C78.2426 15.0723 79.2355 15.3159 80.0813 15.8034C80.9344 16.2909 81.594 16.9971 82.0599 17.9218C82.533 18.8466 82.766 19.9684 82.7589 21.2875V31.8041H78.8663V21.8897C78.8663 20.7857 78.5795 19.9219 78.0059 19.2982C77.4396 18.6745 76.6547 18.3627 75.651 18.3627C74.97 18.3627 74.3642 18.5133 73.8338 18.8143C73.3104 19.1082 72.8983 19.5348 72.5972 20.094C72.3032 20.6532 72.1563 21.3305 72.1563 22.1263Z" fill="#0D0D0D"/>
<path d="M89.7051 9.7832V31.8056H85.8125V9.7832H89.7051Z" fill="#0D0D0D"/>
<path d="M95.2177 37.9996C94.6872 37.9996 94.1961 37.9567 93.7445 37.8706C93.3 37.7917 92.9452 37.6986 92.6799 37.591L93.5832 34.5586C94.1495 34.7236 94.6549 34.8024 95.0994 34.7952C95.5439 34.788 95.9346 34.6483 96.2715 34.3759C96.6156 34.1106 96.906 33.6661 97.1425 33.0424L97.4758 32.1499L91.4863 15.2891H95.6155L99.4222 27.7627H99.5942L103.412 15.2891H107.552L100.938 33.8059C100.63 34.6805 100.221 35.4297 99.7125 36.0533C99.2035 36.6841 98.5799 37.1645 97.8415 37.4942C97.1102 37.8311 96.2356 37.9996 95.2177 37.9996Z" fill="#0D0D0D"/>
<path d="M2.91806 5.25738C2.32679 4.66611 2.32679 3.70746 2.91806 3.11619L6.03427 0L9.15046 3.11619C9.74174 3.70746 9.74174 4.66611 9.15046 5.25738L7.10486 7.30299C6.51358 7.89425 5.55494 7.89425 4.96368 7.30299L2.91806 5.25738Z" fill="#FF5775"/>
<path d="M12.4396 5.25737C11.8483 4.6661 11.8483 3.70747 12.4396 3.1162L15.5558 0L18.6719 3.1162C19.2632 3.70747 19.2632 4.6661 18.6719 5.25737L16.6263 7.30298C16.0351 7.89425 15.0764 7.89425 14.4851 7.30298L12.4396 5.25737Z" fill="#9B6EFB"/>
</svg>
