<svg width="257" height="545" viewBox="0 0 257 545" fill="none" xmlns="http://www.w3.org/2000/svg">
<rect width="256" height="545" rx="28" fill="#181818"/>
<path d="M34.1518 7C18.0521 6.99949 5.00029 20.039 5 36.1245V510.107C4.99942 526.193 18.0515 539.234 34.1518 539.233H221.848C237.949 539.234 251.001 526.193 251 510.107V36.1245C251 20.039 237.948 6.99949 221.848 7L188.921 7C185.514 7 183.752 7.35174 183.752 12.7511C183.752 18.1503 180.404 24.9469 168.421 24.9469H88.7286C76.7459 24.9469 73.3972 18.1503 73.3972 12.7511C73.3972 7.35189 71.6353 7 68.2284 7L34.1518 7Z" fill="white"/>
<path d="M39.3148 17.0545C40.9612 17.0545 42.163 18.209 42.163 20.5225V20.532C42.163 22.7699 41.0795 24.1183 39.3006 24.1183C37.9806 24.1183 36.987 23.3518 36.7836 22.2968L36.7741 22.2542H38.184L38.1982 22.292C38.3685 22.7036 38.747 22.9828 39.3053 22.9828C40.3036 22.9828 40.7389 22.0318 40.7909 20.8253C40.7956 20.7354 40.8004 20.6408 40.7956 20.5651H40.772C40.5023 21.1991 39.8305 21.6628 38.9079 21.6628C37.5879 21.6628 36.6842 20.7307 36.6842 19.4486V19.4391C36.6842 18.0434 37.796 17.0545 39.3148 17.0545ZM39.3195 20.6077C40.0339 20.6077 40.5827 20.1109 40.5827 19.4154V19.4107C40.5827 18.7199 40.0339 18.19 39.3337 18.19C38.6382 18.19 38.0752 18.7152 38.0752 19.3918V19.4012C38.0752 20.1109 38.6098 20.6077 39.3195 20.6077ZM43.7195 19.6662C43.289 19.6662 42.9531 19.3303 42.9531 18.8997C42.9531 18.4739 43.289 18.1333 43.7195 18.1333C44.1454 18.1333 44.486 18.4739 44.486 18.8997C44.486 19.3303 44.1454 19.6662 43.7195 19.6662ZM43.7195 23.0348C43.289 23.0348 42.9531 22.6942 42.9531 22.2684C42.9531 21.8378 43.289 21.5019 43.7195 21.5019C44.1454 21.5019 44.486 21.8378 44.486 22.2684C44.486 22.6942 44.1454 23.0348 43.7195 23.0348ZM48.6258 24V22.7462H45.2288V21.554L47.9682 17.1728H49.9837V21.606H50.8826V22.7462H49.9837V24H48.6258ZM46.4731 21.6438H48.6542V18.2042H48.6211L46.4731 21.606V21.6438ZM53.305 24V18.4834H53.2766L51.5355 19.6662V18.3982L53.3003 17.1728H54.7197V24H53.305Z" fill="black"/>
<rect opacity="0.35" x="222.453" y="17.3944" width="13.6794" height="6.83969" rx="2.1659" stroke="black" stroke-width="0.569975"/>
<path opacity="0.4" d="M236.988 19.835V22.1579C237.447 21.9611 237.745 21.5035 237.745 20.9964C237.745 20.4894 237.447 20.0317 236.988 19.835" fill="black"/>
<rect x="223.309" y="18.249" width="11.9695" height="5.12977" rx="1.42494" fill="black"/>
<path fill-rule="evenodd" clip-rule="evenodd" d="M213.202 18.8784C214.619 18.8784 215.983 19.404 217.01 20.3464C217.088 20.4192 217.211 20.4183 217.287 20.3444L218.027 19.6242C218.066 19.5868 218.087 19.536 218.087 19.4832C218.086 19.4303 218.064 19.3798 218.025 19.3428C215.329 16.8493 211.075 16.8493 208.378 19.3428C208.339 19.3798 208.317 19.4303 208.316 19.4831C208.316 19.5359 208.338 19.5867 208.376 19.6242L209.116 20.3444C209.192 20.4184 209.316 20.4193 209.393 20.3464C210.421 19.4039 211.784 18.8784 213.202 18.8784ZM213.2 21.2838C213.974 21.2838 214.72 21.5755 215.293 22.1022C215.371 22.1769 215.493 22.1753 215.568 22.0985L216.302 21.3466C216.341 21.3071 216.362 21.2536 216.362 21.198C216.361 21.1424 216.339 21.0894 216.299 21.0507C214.553 19.403 211.848 19.403 210.102 21.0507C210.063 21.0894 210.04 21.1424 210.04 21.1981C210.039 21.2537 210.061 21.3072 210.099 21.3466L210.833 22.0985C210.909 22.1753 211.031 22.1769 211.108 22.1022C211.681 21.5758 212.427 21.2841 213.2 21.2838ZM214.639 22.8761C214.64 22.9361 214.619 22.994 214.58 23.0361L213.34 24.4352C213.303 24.4763 213.254 24.4995 213.202 24.4995C213.15 24.4995 213.101 24.4763 213.064 24.4352L211.824 23.0361C211.785 22.994 211.764 22.9361 211.765 22.876C211.766 22.816 211.79 22.7591 211.83 22.7189C212.622 21.97 213.782 21.97 214.575 22.7189C214.614 22.7592 214.638 22.816 214.639 22.8761Z" fill="black"/>
<path fill-rule="evenodd" clip-rule="evenodd" d="M204.043 18.0684C204.043 17.7075 203.771 17.415 203.435 17.415H202.827C202.491 17.415 202.219 17.7075 202.219 18.0684V23.7305C202.219 24.0913 202.491 24.3838 202.827 24.3838H203.435C203.771 24.3838 204.043 24.0913 204.043 23.7305V18.0684ZM199.806 18.8088H200.414C200.75 18.8088 201.022 19.1083 201.022 19.4778V23.7148C201.022 24.0843 200.75 24.3838 200.414 24.3838H199.806C199.47 24.3838 199.198 24.0843 199.198 23.7148V19.4778C199.198 19.1083 199.47 18.8088 199.806 18.8088ZM197.337 20.3187H196.729C196.393 20.3187 196.121 20.622 196.121 20.9962V23.7063C196.121 24.0804 196.393 24.3838 196.729 24.3838H197.337C197.673 24.3838 197.945 24.0804 197.945 23.7063V20.9962C197.945 20.622 197.673 20.3187 197.337 20.3187ZM194.316 21.7124H193.708C193.372 21.7124 193.1 22.0114 193.1 22.3803V23.7159C193.1 24.0848 193.372 24.3838 193.708 24.3838H194.316C194.651 24.3838 194.924 24.0848 194.924 23.7159V22.3803C194.924 22.0114 194.651 21.7124 194.316 21.7124Z" fill="black"/>
</svg>
