<svg width="88" height="31" viewBox="0 0 88 31" fill="none" xmlns="http://www.w3.org/2000/svg">
<path d="M7.14941 19.9123H10.0969L11.8425 22.1755L13.0883 23.6493L16.0796 27.4915H12.9215L10.8864 24.9124L10.0179 23.6843L7.14941 19.9123ZM16.5094 16.9648C16.5094 18.9005 16.1469 20.5585 15.4217 21.9386C14.7024 23.313 13.7199 24.3656 12.4742 25.0967C11.2344 25.8277 9.82784 26.1932 8.25472 26.1932C6.68156 26.1932 5.27214 25.8277 4.02647 25.0967C2.78666 24.3598 1.80417 23.3042 1.07899 21.9299C0.359667 20.5497 0 18.8946 0 16.9648C0 15.029 0.359667 13.374 1.07899 11.9997C1.80417 10.6195 2.78666 9.56388 4.02647 8.83287C5.27214 8.10184 6.68156 7.73633 8.25472 7.73633C9.82784 7.73633 11.2344 8.10184 12.4742 8.83287C13.7199 9.56388 14.7024 10.6195 15.4217 11.9997C16.1469 13.374 16.5094 15.029 16.5094 16.9648ZM13.2374 16.9648C13.2374 15.6021 13.0239 14.453 12.597 13.5173C12.1759 12.5757 11.5912 11.8652 10.8425 11.3856C10.094 10.9002 9.23138 10.6575 8.25472 10.6575C7.27807 10.6575 6.41546 10.9002 5.6669 11.3856C4.91832 11.8652 4.33058 12.5757 3.90367 13.5173C3.4826 14.453 3.27206 15.6021 3.27206 16.9648C3.27206 18.3274 3.4826 19.4795 3.90367 20.4211C4.33058 21.3568 4.91832 22.0673 5.6669 22.5527C6.41546 23.0323 7.27807 23.272 8.25472 23.272C9.23138 23.272 10.094 23.0323 10.8425 22.5527C11.5912 22.0673 12.1759 21.3568 12.597 20.4211C13.0239 19.4795 13.2374 18.3274 13.2374 16.9648Z" fill="#FAF7FF"/>
<path d="M27.3185 20.28V12.4727H30.4941V25.9469H27.415V23.5521H27.2747C26.9706 24.3064 26.4706 24.9234 25.7746 25.403C25.0845 25.8826 24.2336 26.1223 23.2219 26.1223C22.3388 26.1223 21.5581 25.9264 20.8796 25.5346C20.2071 25.1369 19.6808 24.5608 19.3007 23.8064C18.9205 23.0462 18.7305 22.128 18.7305 21.0519V12.4727H21.906V20.5607C21.906 21.4145 22.14 22.0929 22.6078 22.5959C23.0757 23.0988 23.6897 23.3503 24.45 23.3503C24.9179 23.3503 25.3711 23.2362 25.8097 23.0082C26.2484 22.7801 26.608 22.4409 26.8887 21.9905C27.1753 21.5344 27.3185 20.9642 27.3185 20.28Z" fill="#FAF7FF"/>
<path d="M33.0176 25.9475V12.4732H36.0967V14.7189H36.237C36.4827 13.9411 36.9037 13.3417 37.5003 12.9206C38.1026 12.4937 38.7898 12.2803 39.5618 12.2803C39.7372 12.2803 39.9331 12.289 40.1495 12.3065C40.3718 12.3182 40.5559 12.3387 40.7021 12.3679V15.2891C40.5676 15.2423 40.3541 15.2014 40.0617 15.1664C39.7752 15.1254 39.4974 15.105 39.2284 15.105C38.6494 15.105 38.1289 15.2307 37.6669 15.4821C37.2107 15.7278 36.8511 16.0698 36.5879 16.5085C36.3248 16.9471 36.1931 17.453 36.1931 18.0261V25.9475H33.0176Z" fill="#FAF7FF"/>
<path d="M45.7062 26.2195C44.8525 26.2195 44.0834 26.0674 43.3991 25.7633C42.7207 25.4534 42.1828 24.9972 41.785 24.3948C41.3932 23.7925 41.1973 23.0497 41.1973 22.1667C41.1973 21.4064 41.3376 20.7777 41.6184 20.2806C41.8991 19.7835 42.2822 19.3858 42.7675 19.0876C43.253 18.7893 43.7997 18.5642 44.408 18.4121C45.022 18.2542 45.6565 18.1402 46.3116 18.07C47.101 17.9881 47.7415 17.9151 48.2327 17.8507C48.724 17.7805 49.0807 17.6753 49.3029 17.5349C49.5309 17.3887 49.6451 17.1635 49.6451 16.8594V16.8068C49.6451 16.1459 49.4491 15.6342 49.0573 15.2716C48.6655 14.909 48.1011 14.7278 47.3642 14.7278C46.5864 14.7278 45.9694 14.8974 45.5132 15.2366C45.063 15.5757 44.7589 15.9764 44.601 16.4384L41.6359 16.0173C41.8699 15.1986 42.2558 14.5143 42.7939 13.9646C43.3319 13.409 43.9898 12.9938 44.7676 12.7189C45.5454 12.4382 46.4051 12.2979 47.3467 12.2979C47.9959 12.2979 48.642 12.3739 49.2854 12.5259C49.9286 12.678 50.5164 12.9295 51.0486 13.2804C51.5807 13.6253 52.0076 14.0961 52.3294 14.6927C52.6568 15.2892 52.8206 16.0348 52.8206 16.9296V25.9475H49.7678V24.0965H49.6626C49.4696 24.4709 49.1976 24.8218 48.8467 25.1492C48.5017 25.4709 48.066 25.7311 47.5397 25.93C47.0192 26.123 46.4081 26.2195 45.7062 26.2195ZM46.5308 23.886C47.1684 23.886 47.7209 23.7603 48.1888 23.5088C48.6566 23.2515 49.0163 22.9122 49.2678 22.4912C49.5251 22.0701 49.6538 21.6111 49.6538 21.114V19.5262C49.5544 19.608 49.3848 19.6841 49.145 19.7543C48.911 19.8245 48.6479 19.8859 48.3555 19.9385C48.0631 19.9911 47.7736 20.0379 47.4871 20.0789C47.2005 20.1198 46.9519 20.1549 46.7414 20.1842C46.2677 20.2485 45.8437 20.3537 45.4695 20.5C45.0951 20.6462 44.7998 20.8508 44.5834 21.114C44.367 21.3713 44.2588 21.7046 44.2588 22.114C44.2588 22.6988 44.4723 23.1404 44.8992 23.4387C45.3262 23.7369 45.87 23.886 46.5308 23.886Z" fill="#FAF7FF"/>
<path d="M58.449 18.0524V25.9475H55.2734V12.4733H58.3086V14.7628H58.4665C58.7765 14.0085 59.2707 13.409 59.949 12.9645C60.6332 12.5201 61.4784 12.2979 62.4842 12.2979C63.4141 12.2979 64.2241 12.4966 64.9142 12.8943C65.6101 13.292 66.1481 13.8681 66.5283 14.6225C66.9142 15.3769 67.1043 16.2921 67.0985 17.3682V25.9475H63.9229V17.8594C63.9229 16.9588 63.689 16.2541 63.2211 15.7453C62.7591 15.2366 62.1187 14.9822 61.2999 14.9822C60.7444 14.9822 60.2502 15.105 59.8175 15.3506C59.3905 15.5903 59.0543 15.9383 58.8087 16.3945C58.5688 16.8507 58.449 17.4033 58.449 18.0524Z" fill="#FAF7FF"/>
<path d="M72.7595 7.98145V25.9471H69.584V7.98145H72.7595Z" fill="#FAF7FF"/>
<path d="M77.2589 30.9997C76.8261 30.9997 76.4254 30.9646 76.057 30.8944C75.6944 30.8301 75.405 30.7541 75.1885 30.6664L75.9255 28.1926C76.3875 28.3271 76.7998 28.3914 77.1624 28.3855C77.525 28.3797 77.8437 28.2657 78.1185 28.0435C78.3993 27.8271 78.6361 27.4644 78.8291 26.9557L79.101 26.2275L74.2148 12.4727H77.5834L80.6888 22.6485H80.8292L83.9433 12.4727H87.3207L81.9257 27.5785C81.6742 28.292 81.3409 28.9031 80.9257 29.4119C80.5105 29.9265 80.0017 30.3184 79.3993 30.5874C78.8027 30.8622 78.0893 30.9997 77.2589 30.9997Z" fill="#FAF7FF"/>
<path d="M1.96333 4.28891C1.48097 3.80656 1.48097 3.02451 1.96333 2.54216L4.50549 0L7.04765 2.54216C7.53001 3.02451 7.53001 3.80656 7.04765 4.28891L5.37887 5.9577C4.89651 6.44005 4.11446 6.44005 3.63211 5.9577L1.96333 4.28891Z" fill="#FF5775"/>
<path d="M9.72894 4.28988C9.2466 3.80753 9.2466 3.02549 9.72894 2.54314L12.2711 0.000976562L14.8132 2.54314C15.2956 3.02549 15.2956 3.80753 14.8132 4.28988L13.1445 5.95867C12.6621 6.44102 11.8801 6.44102 11.3977 5.95867L9.72894 4.28988Z" fill="#9B6EFB"/>
</svg>
