<svg width="25" height="26" viewBox="0 0 25 26" fill="none" xmlns="http://www.w3.org/2000/svg">
<g clip-path="url(#clip0_135_61)">
<path d="M10.9025 12.2598L0.699463 23.7682C1.07058 24.9851 2.24971 25.8389 3.56762 25.8389C4.14125 25.8389 4.64344 25.7008 5.07366 25.4244L17.6236 18.5174L10.9025 12.2598Z" fill="#EA4335"/>
<path d="M22.9309 10.6405L17.5518 7.66895L11.8149 13.1278L17.6237 18.5177L23.0023 15.6155C23.9347 15.1316 24.5803 14.1643 24.5803 13.1278C24.5083 12.0912 23.8633 11.1239 22.9309 10.6405Z" fill="#FBBC04"/>
<path d="M10.8778 14.0254L17.5522 7.66872L5.14562 0.896959C4.7154 0.620601 4.14125 0.482422 3.56762 0.482422C2.2055 0.482422 0.986279 1.38083 0.699463 2.5556L10.8778 14.0254Z" fill="#34A853"/>
<path d="M0.69901 2.55566C0.627563 2.76268 0.627563 3.03954 0.627563 3.3154V23.0091C0.627563 23.285 0.627563 23.4925 0.699524 23.7689L11.8159 13.1276L0.69901 2.55566Z" fill="#4285F4"/>
</g>
<defs>
<clipPath id="clip0_135_61">
<rect width="23.9527" height="25.3566" fill="white" transform="translate(0.627563 0.482422)"/>
</clipPath>
</defs>
</svg>
