<svg width="233" height="495" viewBox="0 0 233 495" fill="none" xmlns="http://www.w3.org/2000/svg">
<rect width="232.514" height="495" rx="25.4312" fill="#181818"/>
<path d="M31.0183 6.35742C16.3957 6.35696 4.54128 18.2002 4.54102 32.8099V463.308C4.54048 477.918 16.3951 489.762 31.0183 489.762H201.495C216.118 489.762 227.973 477.918 227.972 463.308V32.8099C227.972 18.2002 216.118 6.35696 201.495 6.35742L171.589 6.35742C168.494 6.35742 166.894 6.67689 166.894 11.5809C166.894 16.4848 163.853 22.6578 152.969 22.6578H80.5881C69.7047 22.6578 66.6632 16.4848 66.6632 11.5809C66.6632 6.67703 65.063 6.35742 61.9687 6.35742L31.0183 6.35742Z" fill="white"/>
<path d="M35.0946 15.7704C36.7411 15.7704 37.9428 16.9248 37.9428 19.2384V19.2478C37.9428 21.4857 36.8594 22.8341 35.0804 22.8341C33.7604 22.8341 32.7668 22.0676 32.5634 21.0126L32.5539 20.97H33.9638L33.978 21.0078C34.1484 21.4195 34.5269 21.6986 35.0851 21.6986C36.0834 21.6986 36.5187 20.7476 36.5707 19.5412C36.5755 19.4513 36.5802 19.3566 36.5755 19.2809H36.5518C36.2821 19.9149 35.6103 20.3786 34.6877 20.3786C33.3677 20.3786 32.464 19.4465 32.464 18.1644V18.1549C32.464 16.7592 33.5759 15.7704 35.0946 15.7704ZM35.0993 19.3235C35.8137 19.3235 36.3626 18.8267 36.3626 18.1313V18.1265C36.3626 17.4358 35.8137 16.9059 35.1135 16.9059C34.418 16.9059 33.855 17.431 33.855 18.1076V18.1171C33.855 18.8267 34.3896 19.3235 35.0993 19.3235ZM39.4994 18.382C39.0688 18.382 38.7329 18.0461 38.7329 17.6155C38.7329 17.1897 39.0688 16.8491 39.4994 16.8491C39.9252 16.8491 40.2658 17.1897 40.2658 17.6155C40.2658 18.0461 39.9252 18.382 39.4994 18.382ZM39.4994 21.7506C39.0688 21.7506 38.7329 21.41 38.7329 20.9842C38.7329 20.5536 39.0688 20.2177 39.4994 20.2177C39.9252 20.2177 40.2658 20.5536 40.2658 20.9842C40.2658 21.41 39.9252 21.7506 39.4994 21.7506ZM44.4057 22.7158V21.462H41.0086V20.2698L43.748 15.8886H45.7635V20.3218H46.6625V21.462H45.7635V22.7158H44.4057ZM42.253 20.3597H44.4341V16.9201H44.4009L42.253 20.3218V20.3597ZM49.0849 22.7158V17.1992H49.0565L47.3154 18.382V17.114L49.0801 15.8886H50.4995V22.7158H49.0849Z" fill="black"/>
<rect opacity="0.35" x="202.046" y="15.7979" width="12.4244" height="6.2122" rx="1.9672" stroke="black" stroke-width="0.517683"/>
<path opacity="0.4" d="M215.246 18.0137V20.1235C215.663 19.9448 215.934 19.5291 215.934 19.0686C215.934 18.608 215.663 18.1924 215.246 18.0137Z" fill="black"/>
<rect x="202.822" y="16.5742" width="10.8713" height="4.65915" rx="1.29421" fill="black"/>
<path fill-rule="evenodd" clip-rule="evenodd" d="M193.642 17.1469C194.93 17.1469 196.168 17.6243 197.101 18.4803C197.172 18.5463 197.284 18.5455 197.353 18.4784L198.025 17.8243C198.06 17.7903 198.079 17.7441 198.079 17.6962C198.079 17.6482 198.059 17.6023 198.023 17.5687C195.574 15.3039 191.71 15.3039 189.261 17.5687C189.226 17.6023 189.205 17.6482 189.205 17.6961C189.205 17.7441 189.224 17.7902 189.259 17.8243L189.931 18.4784C190 18.5456 190.113 18.5464 190.183 18.4803C191.116 17.6242 192.355 17.1469 193.642 17.1469ZM193.641 19.3316C194.343 19.3316 195.021 19.5965 195.542 20.0749C195.612 20.1428 195.723 20.1413 195.792 20.0716L196.458 19.3886C196.493 19.3528 196.513 19.3042 196.512 19.2537C196.512 19.2032 196.491 19.155 196.455 19.1199C194.869 17.6234 192.413 17.6234 190.827 19.1199C190.791 19.155 190.771 19.2032 190.77 19.2537C190.77 19.3042 190.789 19.3528 190.825 19.3886L191.491 20.0716C191.559 20.1413 191.67 20.1428 191.741 20.0749C192.261 19.5968 192.938 19.3319 193.641 19.3316ZM194.947 20.7778C194.948 20.8323 194.929 20.8849 194.894 20.9231L193.768 22.1939C193.735 22.2313 193.689 22.2523 193.643 22.2523C193.596 22.2523 193.55 22.2313 193.517 22.1939L192.39 20.9231C192.356 20.8849 192.336 20.8323 192.338 20.7778C192.339 20.7232 192.36 20.6716 192.396 20.635C193.116 19.9548 194.169 19.9548 194.889 20.635C194.925 20.6716 194.946 20.7233 194.947 20.7778Z" fill="black"/>
<path fill-rule="evenodd" clip-rule="evenodd" d="M185.322 16.4108C185.322 16.083 185.075 15.8174 184.77 15.8174H184.218C183.913 15.8174 183.666 16.083 183.666 16.4108V21.5534C183.666 21.8811 183.913 22.1468 184.218 22.1468H184.77C185.075 22.1468 185.322 21.8811 185.322 21.5534V16.4108ZM181.474 17.0833H182.026C182.331 17.0833 182.578 17.3553 182.578 17.6909V21.5392C182.578 21.8748 182.331 22.1468 182.026 22.1468H181.474C181.169 22.1468 180.922 21.8748 180.922 21.5392V17.6909C180.922 17.3553 181.169 17.0833 181.474 17.0833ZM179.231 18.4546H178.679C178.374 18.4546 178.127 18.7301 178.127 19.07V21.5314C178.127 21.8713 178.374 22.1468 178.679 22.1468H179.231C179.536 22.1468 179.784 21.8713 179.784 21.5314V19.07C179.784 18.7301 179.536 18.4546 179.231 18.4546ZM176.487 19.7205H175.935C175.63 19.7205 175.383 19.9921 175.383 20.3271V21.5402C175.383 21.8752 175.63 22.1468 175.935 22.1468H176.487C176.792 22.1468 177.039 21.8752 177.039 21.5402V20.3271C177.039 19.9921 176.792 19.7205 176.487 19.7205Z" fill="black"/>
</svg>
