<svg width="318" height="677" viewBox="0 0 318 677" fill="none" xmlns="http://www.w3.org/2000/svg">
<rect width="317.899" height="676.777" rx="34.7702" fill="#181818"/>
<path d="M42.4094 8.69238C22.417 8.69175 6.20935 24.8841 6.20898 44.859V633.447C6.20826 653.423 22.4162 669.616 42.4094 669.616H275.49C295.483 669.616 311.691 653.423 311.69 633.447V44.859C311.69 24.8841 295.482 8.69175 275.49 8.69238L234.601 8.69238C230.37 8.69238 228.182 9.12917 228.182 15.8341C228.182 22.5388 224.024 30.9787 209.144 30.9787H110.183C95.3025 30.9787 91.1441 22.5388 91.1441 15.8341C91.1441 9.12936 88.9562 8.69238 84.7256 8.69238L42.4094 8.69238Z" fill="white"/>
<path d="M48.8785 20.4393C50.5249 20.4393 51.7267 21.5937 51.7267 23.9073V23.9168C51.7267 26.1546 50.6432 27.503 48.8643 27.503C47.5443 27.503 46.5507 26.7366 46.3472 25.6815L46.3378 25.6389H47.7477L47.7619 25.6768C47.9322 26.0884 48.3107 26.3676 48.869 26.3676C49.8673 26.3676 50.3026 25.4166 50.3546 24.2101C50.3593 24.1202 50.3641 24.0256 50.3593 23.9499H50.3357C50.066 24.5839 49.3942 25.0475 48.4716 25.0475C47.1516 25.0475 46.2479 24.1155 46.2479 22.8333V22.8239C46.2479 21.4281 47.3597 20.4393 48.8785 20.4393ZM48.8832 23.9925C49.5976 23.9925 50.1464 23.4957 50.1464 22.8002V22.7955C50.1464 22.1047 49.5976 21.5748 48.8974 21.5748C48.2019 21.5748 47.6389 22.1 47.6389 22.7765V22.786C47.6389 23.4957 48.1735 23.9925 48.8832 23.9925ZM53.2832 23.051C52.8527 23.051 52.5168 22.715 52.5168 22.2845C52.5168 21.8587 52.8527 21.518 53.2832 21.518C53.709 21.518 54.0497 21.8587 54.0497 22.2845C54.0497 22.715 53.709 23.051 53.2832 23.051ZM53.2832 26.4196C52.8527 26.4196 52.5168 26.0789 52.5168 25.6531C52.5168 25.2226 52.8527 24.8867 53.2832 24.8867C53.709 24.8867 54.0497 25.2226 54.0497 25.6531C54.0497 26.0789 53.709 26.4196 53.2832 26.4196ZM58.1895 27.3848V26.131H54.7925V24.9387L57.5319 20.5576H59.5474V24.9908H60.4463V26.131H59.5474V27.3848H58.1895ZM56.0368 25.0286H58.2179V21.589H58.1848L56.0368 24.9908V25.0286ZM62.8687 27.3848V21.8681H62.8403L61.0992 23.051V21.783L62.864 20.5576H64.2834V27.3848H62.8687Z" fill="black"/>
<rect opacity="0.35" x="276.24" y="21.6" width="16.987" height="8.49348" rx="2.6896" stroke="black" stroke-width="0.70779"/>
<path opacity="0.4" d="M294.289 24.6299V27.5145C294.859 27.2702 295.229 26.7018 295.229 26.0722C295.229 25.4425 294.859 24.8742 294.289 24.6299" fill="black"/>
<rect x="277.302" y="22.6611" width="14.8636" height="6.37011" rx="1.76948" fill="black"/>
<path fill-rule="evenodd" clip-rule="evenodd" d="M264.754 23.4429C266.514 23.4429 268.207 24.0956 269.483 25.2659C269.579 25.3563 269.733 25.3551 269.827 25.2634L270.745 24.3691C270.793 24.3225 270.82 24.2595 270.82 24.1939C270.819 24.1283 270.792 24.0656 270.743 24.0196C267.395 20.9232 262.112 20.9232 258.763 24.0196C258.715 24.0655 258.687 24.1282 258.687 24.1938C258.687 24.2594 258.713 24.3225 258.761 24.3691L259.68 25.2634C259.774 25.3553 259.928 25.3564 260.024 25.2659C261.3 24.0955 262.993 23.4429 264.754 23.4429ZM264.751 26.4299C265.712 26.4299 266.638 26.7921 267.351 27.4462C267.447 27.539 267.599 27.537 267.692 27.4416L268.604 26.5078C268.652 26.4589 268.678 26.3924 268.678 26.3234C268.677 26.2543 268.649 26.1884 268.6 26.1405C266.431 24.0944 263.073 24.0944 260.905 26.1405C260.856 26.1884 260.828 26.2544 260.827 26.3234C260.826 26.3925 260.853 26.4589 260.901 26.5078L261.812 27.4416C261.906 27.537 262.058 27.539 262.154 27.4462C262.866 26.7925 263.791 26.4303 264.751 26.4299ZM266.538 28.4072C266.539 28.4818 266.513 28.5536 266.466 28.6059L264.925 30.3433C264.88 30.3944 264.818 30.4231 264.754 30.4231C264.69 30.4231 264.628 30.3944 264.583 30.3433L263.042 28.6059C262.995 28.5536 262.968 28.4817 262.97 28.4071C262.971 28.3326 263 28.262 263.05 28.212C264.033 27.282 265.474 27.282 266.458 28.212C266.508 28.262 266.537 28.3326 266.538 28.4072Z" fill="black"/>
<path fill-rule="evenodd" clip-rule="evenodd" d="M253.379 22.4363C253.379 21.9882 253.041 21.625 252.624 21.625H251.869C251.452 21.625 251.114 21.9882 251.114 22.4363V29.4674C251.114 29.9155 251.452 30.2787 251.869 30.2787H252.624C253.041 30.2787 253.379 29.9155 253.379 29.4674V22.4363ZM248.117 23.3557H248.872C249.289 23.3557 249.627 23.7277 249.627 24.1865V29.448C249.627 29.9068 249.289 30.2787 248.872 30.2787H248.117C247.7 30.2787 247.362 29.9068 247.362 29.448V24.1865C247.362 23.7277 247.7 23.3557 248.117 23.3557ZM245.051 25.2307H244.296C243.879 25.2307 243.541 25.6074 243.541 26.0721V29.4374C243.541 29.902 243.879 30.2787 244.296 30.2787H245.051C245.468 30.2787 245.806 29.902 245.806 29.4374V26.0721C245.806 25.6074 245.468 25.2307 245.051 25.2307ZM241.299 26.9615H240.544C240.127 26.9615 239.789 27.3328 239.789 27.7908V29.4494C239.789 29.9074 240.127 30.2787 240.544 30.2787H241.299C241.716 30.2787 242.054 29.9074 242.054 29.4494V27.7908C242.054 27.3328 241.716 26.9615 241.299 26.9615Z" fill="black"/>
</svg>
