<svg width="208" height="443" viewBox="0 0 208 443" fill="none" xmlns="http://www.w3.org/2000/svg">
<rect width="207.934" height="442.671" rx="22.7427" fill="#181818"/>
<path d="M27.7388 5.68555C14.662 5.68513 4.06078 16.2764 4.06055 29.3417V414.33C4.06007 427.396 14.6615 437.988 27.7388 437.987H180.194C193.271 437.988 203.872 427.396 203.872 414.33V29.3417C203.872 16.2764 193.27 5.68513 180.194 5.68555L153.449 5.68555C150.682 5.68555 149.25 5.97125 149.25 10.3568C149.25 14.7423 146.531 20.2628 136.798 20.2628H72.0683C62.3355 20.2628 59.6155 14.7423 59.6155 10.3568C59.6155 5.97137 58.1844 5.68555 55.4172 5.68555L27.7388 5.68555Z" fill="white"/>
<path d="M31.3841 14.1599C32.8565 14.1599 33.9312 15.1923 33.9312 17.2613V17.2697C33.9312 19.271 32.9623 20.4769 31.3714 20.4769C30.191 20.4769 29.3024 19.7914 29.1205 18.8479L29.112 18.8098H30.3729L30.3856 18.8437C30.5379 19.2118 30.8764 19.4614 31.3757 19.4614C32.2684 19.4614 32.6577 18.611 32.7042 17.532C32.7085 17.4517 32.7127 17.367 32.7085 17.2993H32.6873C32.4461 17.8663 31.8453 18.2809 31.0203 18.2809C29.8398 18.2809 29.0317 17.4474 29.0317 16.3008V16.2923C29.0317 15.0442 30.026 14.1599 31.3841 14.1599ZM31.3884 17.3374C32.0273 17.3374 32.5181 16.8932 32.5181 16.2712V16.267C32.5181 15.6492 32.0273 15.1753 31.4011 15.1753C30.7791 15.1753 30.2756 15.645 30.2756 16.25V16.2585C30.2756 16.8932 30.7537 17.3374 31.3884 17.3374ZM35.3233 16.4954C34.9382 16.4954 34.6378 16.195 34.6378 15.81C34.6378 15.4292 34.9382 15.1246 35.3233 15.1246C35.7041 15.1246 36.0087 15.4292 36.0087 15.81C36.0087 16.195 35.7041 16.4954 35.3233 16.4954ZM35.3233 19.508C34.9382 19.508 34.6378 19.2033 34.6378 18.8225C34.6378 18.4375 34.9382 18.1371 35.3233 18.1371C35.7041 18.1371 36.0087 18.4375 36.0087 18.8225C36.0087 19.2033 35.7041 19.508 35.3233 19.508ZM39.7109 20.3711V19.2499H36.673V18.1836L39.1228 14.2657H40.9252V18.2302H41.7291V19.2499H40.9252V20.3711H39.7109ZM37.7857 18.264H39.7363V15.188H39.7067L37.7857 18.2302V18.264ZM43.8954 20.3711V15.4377H43.87L42.313 16.4954V15.3615L43.8912 14.2657H45.1605V20.3711H43.8954Z" fill="black"/>
<rect opacity="0.35" x="180.686" y="14.128" width="11.111" height="5.55548" rx="1.75924" stroke="black" stroke-width="0.462957"/>
<path opacity="0.4" d="M192.49 16.1094V17.9961C192.863 17.8363 193.105 17.4646 193.105 17.0528C193.105 16.6409 192.863 16.2692 192.49 16.1094" fill="black"/>
<rect x="181.38" y="14.8223" width="9.72208" height="4.16661" rx="1.15739" fill="black"/>
<path fill-rule="evenodd" clip-rule="evenodd" d="M173.172 15.3342C174.324 15.3342 175.431 15.7611 176.266 16.5266C176.328 16.5857 176.429 16.5849 176.491 16.5249L177.091 15.94C177.123 15.9095 177.14 15.8683 177.14 15.8254C177.14 15.7825 177.122 15.7414 177.09 15.7114C174.9 13.6861 171.444 13.6861 169.254 15.7114C169.222 15.7414 169.204 15.7825 169.204 15.8254C169.204 15.8683 169.221 15.9095 169.253 15.94L169.853 16.5249C169.915 16.585 170.016 16.5858 170.079 16.5266C170.913 15.761 172.021 15.3342 173.172 15.3342ZM173.171 17.288C173.799 17.2879 174.405 17.5248 174.871 17.9527C174.934 18.0134 175.033 18.0121 175.094 17.9497L175.69 17.3389C175.722 17.3069 175.739 17.2634 175.739 17.2183C175.738 17.1731 175.72 17.13 175.688 17.0986C174.27 15.7603 172.073 15.7603 170.655 17.0986C170.623 17.13 170.604 17.1731 170.604 17.2183C170.603 17.2635 170.621 17.3069 170.652 17.3389L171.248 17.9497C171.31 18.0121 171.409 18.0134 171.472 17.9527C171.937 17.5251 172.543 17.2882 173.171 17.288ZM174.339 18.5813C174.34 18.63 174.323 18.6771 174.292 18.7112L173.284 19.8477C173.255 19.8811 173.214 19.8999 173.172 19.8999C173.13 19.8999 173.09 19.8811 173.061 19.8477L172.053 18.7112C172.022 18.677 172.004 18.63 172.005 18.5812C172.006 18.5324 172.025 18.4863 172.058 18.4536C172.701 17.8453 173.644 17.8453 174.287 18.4536C174.32 18.4863 174.338 18.5325 174.339 18.5813Z" fill="black"/>
<path fill-rule="evenodd" clip-rule="evenodd" d="M165.732 14.6762C165.732 14.3831 165.51 14.1455 165.238 14.1455H164.744C164.471 14.1455 164.25 14.3831 164.25 14.6762V19.2752C164.25 19.5682 164.471 19.8058 164.744 19.8058H165.238C165.51 19.8058 165.732 19.5682 165.732 19.2752V14.6762ZM162.29 15.2776H162.784C163.056 15.2776 163.278 15.5209 163.278 15.821V19.2624C163.278 19.5625 163.056 19.8058 162.784 19.8058H162.29C162.017 19.8058 161.796 19.5625 161.796 19.2624V15.821C161.796 15.5209 162.017 15.2776 162.29 15.2776ZM160.284 16.504H159.791C159.518 16.504 159.297 16.7503 159.297 17.0543V19.2555C159.297 19.5594 159.518 19.8058 159.791 19.8058H160.284C160.557 19.8058 160.778 19.5594 160.778 19.2555V17.0543C160.778 16.7503 160.557 16.504 160.284 16.504ZM157.83 17.636H157.337C157.064 17.636 156.843 17.8789 156.843 18.1785V19.2634C156.843 19.5629 157.064 19.8058 157.337 19.8058H157.83C158.103 19.8058 158.324 19.5629 158.324 19.2634V18.1785C158.324 17.8789 158.103 17.636 157.83 17.636Z" fill="black"/>
</svg>
