<svg width="358" height="760" viewBox="0 0 358 760" fill="none" xmlns="http://www.w3.org/2000/svg">
<rect width="356.991" height="760" rx="39.0459" fill="#181818"/>
<path d="M47.6247 9.76172C25.1737 9.76101 6.97306 27.9446 6.97266 50.3757V711.342C6.97184 733.774 25.1729 751.959 47.6247 751.958H309.367C331.818 751.959 350.019 733.774 350.019 711.342V50.3757C350.018 27.9446 331.818 9.76101 309.367 9.76172L263.45 9.76172C258.699 9.76172 256.242 10.2522 256.242 17.7816C256.242 25.3108 251.572 34.7886 234.862 34.7886H123.732C107.022 34.7886 102.352 25.3108 102.352 17.7816C102.352 10.2524 99.8952 9.76172 95.1444 9.76172L47.6247 9.76172Z" fill="white"/>
<path d="M55.9026 22.578C57.549 22.578 58.7508 23.7324 58.7508 26.046V26.0554C58.7508 28.2933 57.6673 29.6417 55.8884 29.6417C54.5683 29.6417 53.5748 28.8753 53.3713 27.8202L53.3619 27.7776H54.7718L54.786 27.8155C54.9563 28.2271 55.3348 28.5062 55.8931 28.5062C56.8914 28.5062 57.3267 27.5552 57.3787 26.3488C57.3834 26.2589 57.3882 26.1643 57.3834 26.0886H57.3598C57.0901 26.7225 56.4183 27.1862 55.4957 27.1862C54.1757 27.1862 53.272 26.2542 53.272 24.972V24.9625C53.272 23.5668 54.3838 22.578 55.9026 22.578ZM55.9073 26.1311C56.6217 26.1311 57.1705 25.6344 57.1705 24.9389V24.9341C57.1705 24.2434 56.6217 23.7135 55.9215 23.7135C55.226 23.7135 54.663 24.2386 54.663 24.9152V24.9247C54.663 25.6344 55.1976 26.1311 55.9073 26.1311ZM60.3073 25.1896C59.8768 25.1896 59.5409 24.8537 59.5409 24.4232C59.5409 23.9974 59.8768 23.6567 60.3073 23.6567C60.7331 23.6567 61.0738 23.9974 61.0738 24.4232C61.0738 24.8537 60.7331 25.1896 60.3073 25.1896ZM60.3073 28.5583C59.8768 28.5583 59.5409 28.2176 59.5409 27.7918C59.5409 27.3613 59.8768 27.0253 60.3073 27.0253C60.7331 27.0253 61.0738 27.3613 61.0738 27.7918C61.0738 28.2176 60.7331 28.5583 60.3073 28.5583ZM65.2136 29.5234V28.2697H61.8166V27.0774L64.556 22.6963H66.5715V27.1294H67.4704V28.2697H66.5715V29.5234H65.2136ZM63.0609 27.1673H65.242V23.7277H65.2089L63.0609 27.1294V27.1673ZM69.8928 29.5234V24.0068H69.8644L68.1233 25.1896V23.9217L69.8881 22.6963H71.3075V29.5234H69.8928Z" fill="black"/>
<rect opacity="0.35" x="310.21" y="24.2568" width="19.0758" height="9.53792" rx="3.02034" stroke="black" stroke-width="0.794827"/>
<path opacity="0.4" d="M330.478 27.6602V30.8995C331.117 30.6251 331.533 29.9869 331.533 29.2798C331.533 28.5727 331.117 27.9345 330.478 27.6602Z" fill="black"/>
<rect x="311.402" y="25.4492" width="16.6914" height="7.15344" rx="1.98707" fill="black"/>
<path fill-rule="evenodd" clip-rule="evenodd" d="M297.31 26.3255C299.287 26.3256 301.188 27.0585 302.621 28.3727C302.729 28.4742 302.901 28.4729 303.008 28.3698L304.039 27.3656C304.093 27.3133 304.123 27.2425 304.122 27.1689C304.122 27.0952 304.091 27.0247 304.036 26.9731C300.276 23.4959 294.344 23.4959 290.583 26.9731C290.529 27.0247 290.498 27.0951 290.498 27.1688C290.497 27.2425 290.527 27.3133 290.581 27.3656L291.612 28.3698C291.719 28.4731 291.891 28.4743 291.999 28.3727C293.432 27.0584 295.333 26.3255 297.31 26.3255ZM297.308 29.6799C298.386 29.6798 299.427 30.0866 300.226 30.8211C300.335 30.9253 300.505 30.9231 300.61 30.816L301.634 29.7674C301.687 29.7124 301.717 29.6378 301.717 29.5602C301.716 29.4827 301.684 29.4087 301.629 29.3548C299.194 27.0571 295.423 27.0571 292.988 29.3548C292.933 29.4087 292.901 29.4827 292.901 29.5603C292.9 29.6378 292.93 29.7125 292.984 29.7674L294.007 30.816C294.112 30.9231 294.283 30.9253 294.391 30.8211C295.19 30.0871 296.229 29.6803 297.308 29.6799ZM299.314 31.9003C299.316 31.984 299.286 32.0647 299.233 32.1234L297.503 34.0745C297.452 34.1318 297.383 34.1641 297.311 34.1641C297.238 34.1641 297.169 34.1318 297.119 34.0745L295.388 32.1234C295.335 32.0647 295.305 31.9839 295.307 31.9002C295.309 31.8165 295.341 31.7372 295.397 31.6811C296.501 30.6367 298.12 30.6367 299.225 31.6811C299.28 31.7372 299.313 31.8165 299.314 31.9003Z" fill="black"/>
<path fill-rule="evenodd" clip-rule="evenodd" d="M284.537 25.1962C284.537 24.693 284.157 24.2852 283.689 24.2852H282.841C282.373 24.2852 281.993 24.693 281.993 25.1962V33.092C281.993 33.5951 282.373 34.003 282.841 34.003H283.689C284.157 34.003 284.537 33.5951 284.537 33.092V25.1962ZM278.628 26.2287H279.476C279.944 26.2287 280.323 26.6464 280.323 27.1616V33.0701C280.323 33.5854 279.944 34.003 279.476 34.003H278.628C278.159 34.003 277.78 33.5854 277.78 33.0701V27.1616C277.78 26.6464 278.159 26.2287 278.628 26.2287ZM275.185 28.3343H274.337C273.869 28.3343 273.489 28.7573 273.489 29.2791V33.0582C273.489 33.58 273.869 34.003 274.337 34.003H275.185C275.653 34.003 276.033 33.58 276.033 33.0582V29.2791C276.033 28.7573 275.653 28.3343 275.185 28.3343ZM270.972 30.2779H270.124C269.655 30.2779 269.276 30.6948 269.276 31.2091V33.0717C269.276 33.5861 269.655 34.003 270.124 34.003H270.972C271.44 34.003 271.819 33.5861 271.819 33.0717V31.2091C271.819 30.6948 271.44 30.2779 270.972 30.2779Z" fill="black"/>
</svg>
